<svg xmlns="http://www.w3.org/2000/svg" viewBox="0 0 1440 2048">
  <defs>
    <linearGradient id="a" x1="0%" y1="50%" y2="50%">
      <stop offset="0%" stop-color="#64FFD9" stop-opacity=".715"/>
      <stop offset="100%" stop-color="#1DE8B5"/>
    </linearGradient>
  </defs>
  <g fill="url(#a)" fill-rule="evenodd" transform="translate(-51 21)">
    <path d="M754.628 149.114l1.954 11.597c.998 4.154 2.431 8.179 3.82 12.203 1.346 3.938 2.606 7.832 4.342 11.554l6.079 11.207 6.339 10.3 8.25 9.995 8.336 8.958 9.508 7.789 11.116 8.005 3.56 2.553 376.09 216.234c20.494 11.814 42.854 17.396 64.954 17.396 45.025 0 88.834-23.28 112.975-64.953 35.95-62.096 14.589-141.501-47.717-177.331L948.144 18.387l-6.73-3.03c-4.168-2.12-8.38-4.11-12.809-5.754-3.95-1.472-7.945-2.64-11.983-3.722-4.038-1.038-8.12-2.034-12.33-2.77-4.603-.735-9.206-1.081-13.851-1.384L883.06.991l-4.43.433c-4.558.173-8.987.736-13.502 1.385-4.125.562-8.293 1.125-12.288 2.077L841.421 8.39c-4.255 1.428-8.466 2.813-12.504 4.63l-10.334 5.626-11.158 6.793-9.422 7.746-9.509 8.785-7.555 9.13c-2.909 3.678-5.687 7.357-8.206 11.338l-2.518 3.505-3.04 6.707c-2.083 4.154-4.08 8.308-5.73 12.679-1.52 4.024-2.692 8.049-3.778 12.116-1.085 3.981-2.04 7.92-2.735 12.03-.782 4.76-1.173 9.477-1.433 14.237l-.695 7.097.391 4.197c.174 4.76.738 9.433 1.433 14.107"/>
    <path d="M1585.377 1117.986c4.21 2.087 8.465 4.088 12.94 5.785 4.122 1.522 8.245 2.74 12.456 3.827 3.904 1.044 7.807 2.001 11.887 2.697 4.956.783 9.868 1.218 14.869 1.48l6.886.695 4.035-.435c5.044-.13 9.957-.74 14.913-1.479l11.141-1.87c4.43-1 8.64-2.523 12.94-3.958l11.272-4.176c3.991-1.827 7.763-4.045 11.58-6.22l10.307-6.307 10.088-8.221 9.167-8.439 7.72-9.308c2.938-3.698 5.79-7.438 8.29-11.397l2.5-3.48 3.026-6.61c2.15-4.22 4.167-8.526 5.878-13.007 1.535-3.914 2.675-7.873 3.728-11.918 1.14-4.045 2.149-8.134 2.85-12.353.746-4.654 1.141-9.308 1.404-14.006l.746-7.308-.439-4.35c-.131-4.654-.745-9.22-1.403-13.788-.57-4.089-1.097-8.134-2.018-12.049-.965-4.045-2.368-7.873-3.728-11.788-1.404-4.132-2.763-8.22-4.562-12.135l-5.833-10.744-6.711-10.831-8.027-9.613-8.772-9.439-9.211-7.525c-3.772-2.914-7.544-5.785-11.667-8.308l-3.422-2.48-379.93-217.442c-40.703-23.315-90.88-23.315-131.54 0-40.748 23.314-65.793 66.377-65.793 113.006v209.004L950.39 888.93c-62.941-36.016-143.427-14.615-179.745 47.76-36.317 62.418-14.781 142.236 48.117 178.295l379.93 217.574c20.351 11.657 43.116 17.442 65.836 17.442s45.397-5.785 65.792-17.442c40.704-23.315 65.793-66.42 65.793-113.05V1010.46l182.552 104.524 6.711 3.002z"/>
    <path d="M66.25 1114.17l376.797 217.277 3.219 1.347c9.091 4.908 18.531 9.078 28.449 11.685l2.219.39c9.047 2.26 18.313 3.302 27.709 3.606l3.524.434 5.35-.695a127.546 127.546 0 0 0 22.49-2.91l8.439-1.868c8.525-2.476 16.921-5.82 25.099-10.208l3.48-1.564.522-.217c8.961-5.169 16.834-11.424 24.055-18.244l5.525-5.95a124.493 124.493 0 0 0 15.095-19.504l3.088-3.997 1.784-3.91c2.218-4.17 4.001-8.426 5.785-12.77l4.176-11.207c1.218-4.127 2.001-8.253 2.784-12.423.826-4.127 1.696-8.21 2.088-12.337.391-4.213.348-8.427.348-12.683-.043-4.084.043-8.167-.304-12.207-.436-4.256-1.349-8.47-2.176-12.683-.782-4.084-1.522-8.123-2.74-12.12l-4.22-11.294c-1.74-4.387-3.523-8.644-5.742-12.77l-1.783-3.91-4.22-5.864c-2.61-3.996-5.307-7.906-8.395-11.641l-8.352-9.035-9.44-8.688-11.179-8.08-6.134-4.387-376.797-217.277C134.327 852.5 54.505 873.871 18.487 936.118-17.531 998.45 3.827 1078.16 66.25 1114.17"/>
    <path d="M27.298 643.16c3.309 4.37 7.4 8.177 11.318 12.158l6.094 6.577a129.255 129.255 0 0 0 21.502 15.361l.044.043 376.82 216.307C463.271 905.246 485.82 911 508.366 911c22.548 0 45.095-5.755 65.292-17.351l377.037-216.393c62.462-35.87 83.835-115.228 47.794-177.32s-115.871-83.294-178.377-47.51L508.41 631.304 196.839 452.469l-.044-.043c-62.505-35.87-142.335-14.582-178.42 47.51-26.29 45.304-21.72 99.65 6.79 139.762l2.133 3.461z"/>
    <path d="M1392.553 1632.208c-.827-4.067-1.567-8.135-2.743-12.116l-4.267-11.337c-1.741-4.284-3.527-8.481-5.704-12.592l-1.785-3.938-4.354-5.971c-2.569-3.895-5.181-7.703-8.23-11.338l-8.577-9.26-9.187-8.438c-3.701-3.029-7.576-5.669-11.538-8.265l-5.966-4.24-377.11-216.318c-40.407-23.193-90.218-23.193-130.58 0l-377.155 216.317c-62.482 35.83-83.904 115.234-47.852 177.33 36.095 62.095 115.994 83.428 178.432 47.512l311.842-178.843 311.843 178.843 3.135 1.298c9.1 4.89 18.549 9.087 28.52 11.727l2.394.39c9.013 2.206 18.244 3.288 27.562 3.548l3.57.476 5.356-.693c7.533-.303 15.022-1.298 22.51-2.899l8.448-1.904c8.577-2.466 16.98-5.842 25.167-10.169l3.44-1.514.522-.26c9.013-5.15 16.894-11.424 24.122-18.218l5.442-5.798c5.748-6.101 10.842-12.635 15.24-19.645l3.004-3.852 1.698-3.808c2.264-4.197 4.137-8.568 5.922-13.025l4.093-10.904c1.219-4.11 2.003-8.265 2.83-12.462.827-4.111 1.698-8.179 2.09-12.29.392-4.11.305-8.308.305-12.505 0-4.111.087-8.222-.305-12.29-.392-4.24-1.306-8.351-2.134-12.549"/>
    <path d="M882.5 1748c-71.527 0-129.5 57.973-129.5 129.5S810.973 2007 882.5 2007s129.5-57.973 129.5-129.5S954.027 1748 882.5 1748"/>
    <path d="M574.23 459.619c61.933-35.78 83.168-114.934 47.389-176.868-35.736-61.934-114.934-83.125-176.868-47.389s-83.125 114.934-47.389 176.868c35.736 61.933 114.934 83.168 176.868 47.389"/>
    <path d="M65.77 1328.381c-61.933 35.736-83.168 114.934-47.389 176.868 35.736 61.934 114.934 83.125 176.868 47.389s83.125-114.934 47.389-176.868c-35.736-61.933-114.934-83.168-176.868-47.389"/>
  </g>
</svg>
